<svg t="1658425923801" class="icon" viewBox="0 0 1024 1024" version="1.1" xmlns="http://www.w3.org/2000/svg" p-id="46129" width="200" height="200"><path d="M512 0c282.331429 0 512 229.668571 512 512s-229.668571 512-512 512S0 794.331429 0 512 229.668571 0 512 0z m119.186286 658.285714h-238.372572A100.315429 100.315429 0 0 0 292.571429 758.528v133.12a436.077714 436.077714 0 0 0 438.857142 0v-133.12a100.315429 100.315429 0 0 0-100.242285-100.205714zM512 73.142857C269.641143 73.142857 73.142857 269.604571 73.142857 512c0 129.828571 56.722286 246.125714 146.285714 326.436571v-79.908571a173.604571 173.604571 0 0 1 173.385143-173.348571h238.372572A173.604571 173.604571 0 0 1 804.571429 758.491429v79.908571c89.563429-80.347429 146.285714-196.608 146.285714-326.436571 0-242.395429-196.498286-438.857143-438.857143-438.857143z m0 146.285714c80.676571 0 146.285714 65.609143 146.285714 146.285715s-65.609143 146.285714-146.285714 146.285714-146.285714-65.609143-146.285714-146.285714 65.609143-146.285714 146.285714-146.285715z m0 73.142858c-40.338286 0-73.142857 32.804571-73.142857 73.142857s32.804571 73.142857 73.142857 73.142857 73.142857-32.804571 73.142857-73.142857-32.804571-73.142857-73.142857-73.142857z" fill="#181818" p-id="46130"></path></svg>