<svg t="1658459474929" class="icon" viewBox="0 0 1024 1024" version="1.1" xmlns="http://www.w3.org/2000/svg" p-id="2472" width="200" height="200"><path d="M452.48 358.698667l5.248-5.717334 5.418667-5.546666 5.546666-5.589334 5.76-5.418666 5.717334-5.248 12.074666-9.898667 6.186667-4.778667 6.4-4.693333 6.442667-4.266667 6.656-4.352 6.656-4.181333 6.826666-3.84 6.954667-3.754667 6.997333-3.541333 7.253334-3.413333 7.125333-3.242667 7.424-3.072 7.424-2.773333 7.594667-2.645334 7.594666-2.474666 7.722667-2.304 7.765333-2.005334 7.893334-1.877333 7.893333-1.706667 8.064-1.365333 8.192-1.28 8.064-1.066667 8.32-0.768 8.234667-0.597333 8.362666-0.298667h16.853334l8.362666 0.298667 8.362667 0.597333 8.192 0.768 8.234667 1.109334 8.021333 1.237333 8.064 1.365333 7.893333 1.706667 7.893334 1.877333 7.765333 2.005334 7.722667 2.304 7.594666 2.474666 7.552 2.645334 7.466667 2.773333 7.424 3.072 7.125333 3.285333 7.253334 3.413334 6.954666 3.498666 6.997334 3.712 6.826666 3.84 6.613334 4.224 6.656 4.309334 6.528 4.352 6.314666 4.650666 6.229334 4.778667 12.032 9.898667 5.717333 5.248 5.76 5.418666 5.546667 5.546667 5.418666 5.546667 5.290667 5.76h106.666667l-6.528-10.368-6.826667-10.24-7.125333-10.026667-7.552-9.728-7.765334-9.6-8.021333-9.130667-8.362667-9.130666-8.533333-8.618667-8.96-8.533333-9.130667-8.192-9.429333-7.850667-9.6-7.594667-9.941333-7.253333-10.197334-6.954667-10.368-6.656-10.538666-6.357333-10.794667-6.016-11.008-5.717333-11.306667-5.248-11.306666-4.992-11.605334-4.608-11.733333-4.352-12.074667-3.84-12.074666-3.413334-12.245334-3.242666-12.544-2.645334-12.501333-2.304-12.714667-2.005333-12.842666-1.408-13.013334-1.066667-13.013333-0.768L678.826667 170.666667l-13.312 0.170666-12.970667 0.768-13.013333 1.066667-12.842667 1.408-12.714667 2.005333-12.501333 2.304-12.544 2.645334-12.245333 3.242666-12.074667 3.413334-11.946667 3.84-11.904 4.352-11.434666 4.608-11.477334 4.992-11.264 5.248-11.008 5.717333-10.837333 6.016-10.538667 6.357333-10.368 6.656-10.24 6.954667-9.856 7.253333-9.6 7.594667-9.429333 7.850667-9.173333 8.192-8.832 8.533333-8.661334 8.618667-8.362666 9.130666-8.021334 9.130667-7.765333 9.6-7.552 9.728-7.125333 10.069333-6.826667 10.197334-6.485333 10.368h106.666666-0.085333z m292.266667 384.341333h-2.816l-2.773334-0.170667-2.645333-0.128-5.248-0.938666-2.474667-0.768-2.304-0.938667-2.176-1.237333-2.133333-1.536-0.981333-0.768-0.768-1.066667-0.938667-0.938667-0.768-1.109333-0.597333-1.237333-0.768-1.365334-0.64-1.408-0.426667-1.408-0.469333-1.706666-0.341334-1.706667-0.298666-1.834667-0.170667-1.834666-0.128-2.005334-0.170667-2.176h-0.128v-221.866666h75.093334V414.506667h-75.093334V291.754667l-92.245333 41.130666v81.621334h-75.093333v80.384h75.093333v250.752h0.128l0.170667 2.645333 0.298666 2.773333 0.298667 2.986667 0.469333 2.730667 0.469334 2.986666 1.536 5.845334 0.938666 2.944 0.938667 2.773333 2.474667 5.888 3.072 5.546667 3.712 5.248 2.176 2.645333 2.346666 2.432 2.474667 2.474667 2.602667 2.346666 2.944 2.133334 3.114666 2.005333 3.242667 2.005333 3.541333 1.706667 3.754667 1.706667 3.84 1.408 4.181333 1.365333 4.522667 1.109333 4.608 0.896 4.992 0.810667 5.248 0.597333 5.418667 0.298667 5.717333 0.170667 33.28 0.426666h9.6l4.48-0.128 4.352-0.298666 4.010667-0.341334 4.053333-0.597333 3.712-0.597333 3.712-1.066667 3.413333-1.109333 3.370667-1.365334 3.114667-1.706666 3.072-1.877334 2.816-2.304 2.773333-2.474666 2.645333-2.944 2.432-3.242667 2.346667-3.712 2.304-4.010667 2.005333-4.650666 2.176-4.949334 1.877334-5.418666 1.834666-5.888 1.706667-6.314667 1.706667-6.954667 1.536-7.594666 1.408-8.021334-29.44-13.781333-1.066667 0.938667-2.602667 2.176-4.181333 3.242666-5.12 3.584-5.888 3.712-3.114667 1.706667-3.072 1.365333-3.242666 1.237334-2.986667 1.066666-3.072 0.64-1.408 0.128h-1.365333z m118.4 70.954667h92.245333V416.64H863.146667v397.354667z m-459.434667 0h92.245333V416.64H403.712v397.354667zM209.92 491.477333l7.253333 0.298667 3.754667 0.341333 3.541333 0.298667 3.584 0.469333 3.541334 0.597334 3.541333 0.768 6.826667 1.578666 6.826666 2.133334 3.242667 1.109333 6.528 2.773333 3.072 1.408 6.186667 3.072 2.944 1.877334 3.114666 1.706666 2.773334 1.834667 2.944 2.005333 2.602666 2.005334 2.816 2.133333 2.602667 2.176 2.645333 2.346667 4.949334 4.650666 2.346666 2.432 2.304 2.645334 2.304 2.474666 2.176 2.773334 2.005334 2.645333 67.498666-59.52-3.712-4.352-7.722666-8.618667-8.064-8.064-4.309334-4.010666L341.333333 448l-4.608-3.541333-4.693333-3.413334-4.608-3.242666-4.949333-3.242667-4.821334-3.072-10.24-5.589333-5.12-2.645334-5.205333-2.602666-5.418667-2.304-5.418666-2.176-5.418667-2.005334-5.589333-2.005333-5.717334-1.706667-11.477333-3.114666-5.888-1.194667-5.888-1.109333-5.888-0.938667-6.016-0.768-6.058667-0.597333-6.016-0.469334-6.229333-0.298666-6.144-0.170667-10.837333 0.298667-10.666667 0.768-10.538667 1.408-10.24 1.834666-10.24 2.346667-9.856 2.773333-9.770666 3.413334-9.6 3.712-9.301334 4.181333-8.96 4.608-8.832 5.12-8.490666 5.418667-8.192 5.845333-8.064 6.186667-7.594667 6.656-7.253333 6.826666-6.997334 7.381334-6.485333 7.594666-6.357333 7.893334-5.717334 8.192-5.546666 8.490666-4.992 8.832-4.650667 8.96-4.181333 9.258667-3.84 9.6-3.285334 9.728-2.773333 9.898667-2.304 10.24-1.877333 10.325333-1.365334 10.496-0.810666 10.538667L0 611.413333l0.298667 10.794667 0.810666 10.666667 1.365334 10.538666 1.877333 10.24 2.304 10.154667 2.773333 9.898667 3.285334 9.728 3.84 9.6 4.181333 9.258666 4.650667 8.96 4.949333 8.832 5.589333 8.490667 5.717334 8.192 6.4 8.021333 6.442666 7.594667 6.997334 7.253333 7.253333 6.954667 7.594667 6.485333 8.064 6.357334 8.192 5.717333 8.533333 5.546667 8.789333 4.949333 8.96 4.650667 9.301334 4.181333 9.6 3.84 9.770666 3.285333 9.898667 2.773334 10.24 2.304 10.197333 1.834666 10.496 1.408 10.666667 0.768 10.88 0.341334h5.888l5.845333-0.341334 5.888-0.426666 5.76-0.469334 5.717334-0.810666 5.717333-0.896 5.546667-0.938667 11.178666-2.474667 10.837334-3.072 5.248-1.706666 5.418666-1.877334 5.12-2.005333 5.248-2.133333 4.949334-2.346667 5.12-2.474667 4.778666-2.474666 4.992-2.602667 4.778667-2.773333 4.650667-2.986667 4.650666-3.072 4.48-3.072 4.48-3.242667 4.352-3.413333 4.181334-3.413333 4.181333-3.541334 4.010667-3.712 4.010666-3.84 3.882667-3.84 7.424-8.064-67.157333-59.52-2.176 2.474667-2.176 2.304-4.48 4.48-2.346667 2.005333-2.432 2.176-2.346667 2.005334-2.474666 2.005333-5.248 3.712-5.248 3.413333-8.362667 4.608-2.944 1.408-8.789333 3.712-6.186667 2.133334-3.114667 0.981333-3.072 0.768-3.285333 0.768-9.728 1.834667-3.242667 0.341333-3.413333 0.298667-3.242667 0.341333-3.413333 0.128h-3.413333l-6.186667-0.128-6.016-0.469333-6.058667-0.768-5.845333-1.109334-5.930667-1.237333-5.717333-1.706667-5.546667-1.834666-5.418666-2.133334-5.290667-2.346666-5.248-2.773334-4.949333-2.816-4.992-3.072-4.608-3.413333-4.693334-3.541333-4.266666-3.84-4.224-3.882667-3.84-4.181333-3.84-4.309334-3.584-4.650666-3.242667-4.650667-3.285333-4.949333-2.773334-4.949334-2.645333-5.12-2.474667-5.376-2.133333-5.418666-1.877333-5.546667-1.706667-5.76-1.237333-5.717333-1.066667-6.016-0.768-5.888-0.469333-6.144-0.128-6.186667 0.128-6.186667 0.426666-6.016 0.810667-6.058666 1.066667-5.888 1.28-5.888 1.706666-5.674667 1.834667-5.546667 2.133333-5.461333 2.474667-5.248 2.645333-5.248 2.773334-4.949333 3.285333-4.949334 3.242667-4.650666 3.541333-4.48 3.84-4.309334 3.882667-4.181333 4.181333-4.010667 4.352-3.712 4.650667-3.712 4.608-3.242666 4.992-3.114667 4.949333-2.901333 5.248-2.645334 5.290667-2.474666 5.418666-2.133334 5.546667-1.877333 5.717333-1.536 5.888-1.408 5.888-1.066667 6.058667-0.768 6.016-0.469333 6.229333-0.170667H209.92z" fill="#ffffff" p-id="2473"></path><path d="M452.266667 359.082667l5.205333-5.76 5.418667-5.546667 5.589333-5.589333 5.76-5.418667 5.717333-5.290667 12.074667-9.898666 6.186667-4.821334 6.357333-4.650666 6.485333-4.309334 6.656-4.352 6.656-4.181333 6.826667-3.84 6.954667-3.754667 6.997333-3.541333 7.253333-3.413333 7.125334-3.242667 7.424-3.114667 7.466666-2.773333 7.594667-2.645333 7.552-2.474667 7.765333-2.346667 7.765334-2.005333 7.893333-1.877333 7.893333-1.706667 8.064-1.365333 8.192-1.28 8.064-1.066667 8.362667-0.725333 8.192-0.64 8.362667-0.298667h16.853333l8.405333 0.298667 8.362667 0.64 8.192 0.725333 8.234667 1.109333 8.021333 1.237334 8.064 1.408 7.893333 1.706666 7.893334 1.834667 7.765333 2.005333 7.765333 2.346667 7.552 2.474667 7.594667 2.645333 7.424 2.773333 7.466667 3.114667 7.125333 3.242667 7.253333 3.413333 6.954667 3.541333 6.997333 3.712 6.826667 3.882667 6.656 4.181333 6.656 4.352 6.485333 4.309334 6.357334 4.693333 6.186666 4.778667 12.074667 9.898666 5.717333 5.290667 5.717334 5.418667 5.589333 5.546666 5.418667 5.589334 5.290666 5.76h106.666667l-6.485333-10.410667-6.826667-10.24-7.125333-10.026667-7.594667-9.813333-7.722667-9.557333-8.064-9.130667-8.362666-9.173333-8.533334-8.661334-8.96-8.533333-9.130666-8.192-9.429334-7.893333-9.6-7.594667-9.941333-7.253333-10.24-6.997334-10.325333-6.698666-10.538667-6.314667-10.837333-6.058667-11.008-5.76-11.264-5.248-11.306667-4.949333-11.648-4.693333-11.733333-4.266667-12.074667-3.925333-12.117333-3.413334-12.202667-3.242666-12.544-2.602667-12.544-2.346667-12.714667-2.005333-12.842666-1.408-13.013334-1.066667-13.013333-0.768L678.698667 170.666667l-13.312 0.170666-13.013334 0.768-13.013333 1.066667-12.842667 1.408-12.714666 2.005333-12.544 2.346667-12.544 2.602667-12.202667 3.285333-12.117333 3.413333-11.904 3.84-11.946667 4.352-11.434667 4.650667-11.477333 4.949333-11.306667 5.248-10.965333 5.76-10.88 6.058667-10.496 6.314667-10.368 6.698666-10.24 6.954667-9.898667 7.253333-9.6 7.637334-9.472 7.893333-9.130666 8.192-8.832 8.533333-8.661334 8.661334-8.362666 9.173333-8.064 9.130667-7.722667 9.6-7.594667 9.770666-7.125333 10.069334-6.826667 10.24-6.485333 10.368h106.666667z" fill="#ffffff" p-id="2474"></path></svg>