<?xml version="1.0" standalone="no"?><!DOCTYPE svg PUBLIC "-//W3C//DTD SVG 1.1//EN" "http://www.w3.org/Graphics/SVG/1.1/DTD/svg11.dtd"><svg t="1658422361380" class="icon" viewBox="0 0 1024 1024" version="1.1" xmlns="http://www.w3.org/2000/svg" p-id="3034" width="200" height="200" xmlns:xlink="http://www.w3.org/1999/xlink"><defs><style type="text/css">@font-face { font-family: feedback-iconfont; src: url("//at.alicdn.com/t/font_1031158_u69w8yhxdu.woff2?t=1630033759944") format("woff2"), url("//at.alicdn.com/t/font_1031158_u69w8yhxdu.woff?t=1630033759944") format("woff"), url("//at.alicdn.com/t/font_1031158_u69w8yhxdu.ttf?t=1630033759944") format("truetype"); }
</style></defs><path d="M736.416 64a32 32 0 0 1 3.744 63.776L736.416 128H167.488c-20.8 0-36.8 13.184-38.848 28.64L128.416 160v704c0 15.744 14.624 29.984 34.688 31.808l4.384 0.192h568.672a32 32 0 0 1 3.744 63.776l-3.744 0.224H167.488c-54.272 0-99.84-39.36-102.88-90.464L64.416 864V160c0-51.968 43.68-93.088 97.28-95.84L167.488 64h568.96z m67.456 278.624l135.776 135.776c1.92 1.92 3.52 4 4.864 6.208a31.968 31.968 0 0 1 1.824 53.6 32.96 32.96 0 0 1-6.688 9.664l-135.776 135.776a32 32 0 1 1-45.248-45.248l94.4-94.4H544a32 32 0 0 1 0-64h306.752l-92.128-92.128a32 32 0 1 1 45.248-45.248z" p-id="3035"></path></svg>