<svg t="1658424708156" class="icon" viewBox="0 0 1024 1024" version="1.1" xmlns="http://www.w3.org/2000/svg" p-id="44977" width="200" height="200"><path d="M512 960C265.002667 960 64 758.997333 64 512 64 264.96 265.002667 64 512 64S960 264.96 960 512c0 11.776-9.557333 21.333333-21.333333 21.333333s-21.333333-9.557333-21.333333-21.333333c0-223.488-181.845333-405.333333-405.333333-405.333333S106.666667 288.512 106.666667 512s181.845333 405.333333 405.333333 405.333333c166.485333 0 318.592-104.362667 378.368-259.712 4.266667-11.008 16.64-16.426667 27.562667-12.245333 11.008 4.224 16.469333 16.597333 12.245333 27.562667C864.128 844.672 696.064 960 512 960zM530.688 592.128c0-48.170667 31.488-75.52 79.104-116.949333l4.224-3.626667c38.784-33.749333 52.864-92.032 34.261333-141.866667-18.645333-49.834667-66.005333-79.573333-126.72-79.573333-119.253333 0-152.832 87.936-153.941333 134.442667-0.298667 11.733333 8.96 21.418667 20.693333 21.76C399.744 406.570667 409.856 397.44 410.282667 385.706667c0.298667-9.514667 6.272-92.928 111.274667-92.928 58.581333 0 79.488 32.512 86.741333 51.882667 12.330667 32.938667 2.901333 72.746667-22.272 94.677333l-4.181333 3.626667c-50.389333 43.733333-93.824 81.536-93.824 149.162667 0 11.776 9.557333 21.333333 21.333333 21.333333S530.688 603.904 530.688 592.128zM511.104 667.221333c-23.594667 0-42.666667 19.072-42.666667 42.666667s19.072 42.666667 42.666667 42.666667 42.666667-19.072 42.666667-42.666667S534.698667 667.221333 511.104 667.221333z" p-id="44978"></path></svg>