<svg t="1658424452602" class="icon" viewBox="0 0 1024 1024" version="1.1" xmlns="http://www.w3.org/2000/svg" p-id="13319" width="200" height="200"><path d="M703.858 64.35c0 11.788-9.554 21.328-21.296 21.328-11.8 0-21.358-9.542-21.358-21.328 0-11.772 9.556-21.31 21.358-21.31 11.74 0 21.296 9.538 21.296 21.31zM959.658 64.35c0 11.788-9.554 21.328-21.296 21.328-11.802 0-21.358-9.542-21.358-21.328 0-11.772 9.554-21.31 21.358-21.31 11.742 0 21.296 9.538 21.296 21.31z" fill="#333333" p-id="13320"></path><path d="M874.412 0.4h-127.9c-11.802 0-21.358 9.554-21.358 21.326v88.822c0 11.772 9.554 21.31 21.358 21.31h127.9c11.74 0 21.296-9.54 21.296-21.31V21.726C895.708 9.956 886.152 0.4 874.412 0.4z m-21.36 88.82h-85.246V43.04h85.246v46.18z" fill="#333333" p-id="13321"></path><path d="M980.956 256.2c0 11.774-9.494 21.328-21.296 21.328H661.204c-11.74 0-21.294-9.554-21.294-21.328V85.678c0-11.774 9.554-21.328 21.294-21.328H959.66c11.802 0 21.296 9.554 21.296 21.328V256.2z" fill="#333333" p-id="13322"></path><path d="M639.908 320.15h341.046V1023.6H639.908z" fill="#333333" p-id="13323"></path><path d="M341.468 533.326h298.44V1023.6h-298.44z" fill="#333333" p-id="13324"></path><path d="M43.044 746.504h298.424V1023.6H43.044z" fill="#333333" p-id="13325"></path><path d="M536.786 171.234l-84.124-13.864c-11.616-1.904-22.576 5.95-24.512 17.58-1.904 11.6 5.964 22.576 17.58 24.496l33.35 5.496L51.946 511.11v0.016c-5.372 3.874-8.9 10.18-8.9 17.314 0 11.774 9.554 21.312 21.328 21.312 4.622 0 8.898-1.468 12.396-3.996v0.032l427.166-306.214-5.496 33.366c-1.936 11.616 5.934 22.592 17.55 24.496 1.186 0.204 2.34 0.296 3.496 0.296 10.242 0 19.296-7.416 21.016-17.862l13.848-84.122c1.936-11.618-5.934-22.592-17.564-24.514z" fill="#333333" p-id="13326"></path></svg>