<svg t="1658426009966" class="icon" viewBox="0 0 1024 1024" version="1.1" xmlns="http://www.w3.org/2000/svg" p-id="61865" width="200" height="200"><path d="M512 1020.02688c-1.590613 0-3.182364-0.213333-4.730311-0.64-4.533476-1.250987-112.275911-31.747982-221.14304-128.914204-63.930027-57.0624-114.866631-125.368889-151.397262-203.025067-45.503716-96.735004-68.575573-208.177493-68.575574-331.234418a17.784604 17.784604 0 0 1 6.835769-14.015715l428.060445-334.453192c6.432996-5.027271 15.466382-5.027271 21.899946 0l428.061014 334.452623a17.785742 17.785742 0 0 1 6.835769 14.015715c0 123.057493-23.073564 234.499413-68.57728 331.234418-36.529493 77.656178-87.467236 145.962667-151.394418 203.025067-108.868267 97.166791-216.612409 127.663218-221.145316 128.914204a17.780053 17.780053 0 0 1-4.729742 0.640569zM101.762844 364.857458c1.860836 208.977351 71.426844 376.485547 206.844587 497.997938C398.87872 943.85664 490.425458 976.674133 512 983.636764c21.574542-6.962631 113.12128-39.780124 203.392-120.781368 135.417742-121.51296 204.984889-289.020587 206.843449-497.997938L512 44.330667 101.762844 364.857458z" p-id="61866"></path><path d="M512 906.543218c-1.591751 0-3.182364-0.213333-4.730311-0.64-3.520853-0.9728-87.221476-24.661333-171.597369-99.97312-49.547378-44.220871-89.022578-97.161102-117.333902-157.344427-35.230151-74.894222-53.093262-161.129813-53.093262-256.310044a17.785173 17.785173 0 0 1 6.836337-14.015716L501.050027 121.230222c6.432996-5.025564 15.466382-5.028409 21.899946 0l328.969103 257.029689a17.784604 17.784604 0 0 1 6.836337 14.015716c0 95.180231-17.862542 181.415822-53.093831 256.310044-28.309049 60.183324-67.785956 113.123556-117.332195 157.344427-84.375324 75.312356-168.075947 99.00032-171.599645 99.97312a17.783467 17.783467 0 0 1-4.729742 0.64zM200.867271 400.910222c1.852302 158.292764 54.74816 285.242027 157.293796 377.41056 67.269973 60.460942 135.524693 85.762844 153.838933 91.807289 18.31424-6.044444 86.56896-31.346347 153.838933-91.807289 102.545636-92.169102 155.440924-219.118364 157.294934-377.41056L512 157.816604 200.867271 400.910222z" p-id="61867"></path></svg>