<?xml version="1.0" standalone="no"?><!DOCTYPE svg PUBLIC "-//W3C//DTD SVG 1.1//EN" "http://www.w3.org/Graphics/SVG/1.1/DTD/svg11.dtd"><svg t="1658420076444" class="icon" viewBox="0 0 1024 1024" version="1.1" xmlns="http://www.w3.org/2000/svg" p-id="1904" xmlns:xlink="http://www.w3.org/1999/xlink" width="200" height="200"><defs><style type="text/css">@font-face { font-family: feedback-iconfont; src: url("//at.alicdn.com/t/font_1031158_u69w8yhxdu.woff2?t=1630033759944") format("woff2"), url("//at.alicdn.com/t/font_1031158_u69w8yhxdu.woff?t=1630033759944") format("woff"), url("//at.alicdn.com/t/font_1031158_u69w8yhxdu.ttf?t=1630033759944") format("truetype"); }
</style></defs><path d="M512 597.333333v85.333334a256 256 0 0 0-256 256H170.666667a341.333333 341.333333 0 0 1 341.333333-341.333334z m0-42.666666c-141.44 0-256-114.56-256-256s114.56-256 256-256 256 114.56 256 256-114.56 256-256 256z m0-85.333334c94.293333 0 170.666667-76.373333 170.666667-170.666666s-76.373333-170.666667-170.666667-170.666667-170.666667 76.373333-170.666667 170.666667 76.373333 170.666667 170.666667 170.666666z m110.72 333.312a149.76 149.76 0 0 1 0-69.248l-42.325333-24.448 42.666666-73.898666 42.325334 24.448A149.162667 149.162667 0 0 1 725.333333 624.853333V576h85.333334v48.853333c22.698667 6.741333 43.178667 18.773333 59.946666 34.645334l42.325334-24.448 42.666666 73.898666-42.325333 24.448a149.76 149.76 0 0 1 0 69.205334l42.325333 24.448-42.666666 73.898666-42.325334-24.448a149.162667 149.162667 0 0 1-59.946666 34.645334V960h-85.333334v-48.853333a149.162667 149.162667 0 0 1-59.946666-34.645334l-42.325334 24.448-42.666666-73.898666 42.325333-24.405334zM768 832a64 64 0 1 0 0-128 64 64 0 0 0 0 128z" p-id="1905"></path></svg>